<!-- Pictogramme générique "base de données" (satellite non nominatif, pas
     de marque à représenter) — le libellé sous l'icône porte le nom. -->
<svg role="img" viewBox="0 0 24 24" xmlns="http://www.w3.org/2000/svg" fill="currentColor">
  <title>Base de données</title>
  <path d="M12 2C7.03 2 3 3.343 3 5v14c0 1.657 4.03 3 9 3s9-1.343 9-3V5c0-1.657-4.03-3-9-3Zm7 16.5c0 .48-2.61 1.5-7 1.5s-7-1.02-7-1.5v-2.6C6.6 16.6 9.16 17.2 12 17.2s5.4-.6 7-1.3v2.6Zm0-5.2c0 .48-2.61 1.5-7 1.5s-7-1.02-7-1.5v-2.6c1.6.7 4.16 1.3 7 1.3s5.4-.6 7-1.3v2.6ZM12 8.7c-4.39 0-7-1.02-7-1.5S7.61 5.7 12 5.7s7 1.02 7 1.5-2.61 1.5-7 1.5Z"/>
</svg>
